<svg id="Layer_1" data-name="Layer 1" xmlns="http://www.w3.org/2000/svg" xmlns:xlink="http://www.w3.org/1999/xlink" viewBox="0 0 1000 1000"><defs><style>.cls-1{fill:url(#linear-gradient);}.cls-2{fill:url(#linear-gradient-2);}</style><linearGradient id="linear-gradient" x1="486.44" y1="1000" x2="486.44" gradientUnits="userSpaceOnUse"><stop offset="0" stop-color="#d259a1"/><stop offset="1" stop-color="#f4b672"/></linearGradient><linearGradient id="linear-gradient-2" x1="675" y1="575" x2="675" y2="425" xlink:href="#linear-gradient"/></defs><path class="cls-1" d="M500,850c-193.3,0-350-156.7-350-350S306.7,150,500,150c149.94,0,277.85,94.28,327.7,226.8A74.75,74.75,0,0,0,897.76,425h0c52.36,0,88.72-52.34,70.25-101.34C896.72,134.53,714.07,0,500,0,223.86,0,0,223.86,0,500s223.86,500,500,500c214.07,0,396.72-134.53,468-323.66,18.47-49-17.89-101.34-70.25-101.34h0a74.75,74.75,0,0,0-70.06,48.2C777.85,755.72,649.94,850,500,850Z"/><path class="cls-2" d="M574.73,575H775.26c41.08,0,74.65-33.15,74.74-74.23v-1.54c-.09-41.08-33.66-74.23-74.74-74.23H574.73A74.73,74.73,0,0,0,500,499.73v.54A74.73,74.73,0,0,0,574.73,575Z"/></svg>