<svg id="Layer_1" data-name="Layer 1" xmlns="http://www.w3.org/2000/svg" xmlns:xlink="http://www.w3.org/1999/xlink" viewBox="0 0 3823.4 1000"><defs><style>.cls-1{fill:url(#linear-gradient);}.cls-2{fill:url(#linear-gradient-2);}.cls-3{fill:#231f20;}</style><linearGradient id="linear-gradient" x1="486.44" y1="1000" x2="486.44" gradientUnits="userSpaceOnUse"><stop offset="0" stop-color="#d259a1"/><stop offset="1" stop-color="#f4b672"/></linearGradient><linearGradient id="linear-gradient-2" x1="675" y1="575" x2="675" y2="425" xlink:href="#linear-gradient"/></defs><path class="cls-1" d="M500,850c-193.3,0-350-156.7-350-350S306.7,150,500,150c149.94,0,277.85,94.28,327.7,226.8A74.75,74.75,0,0,0,897.76,425h0c52.36,0,88.72-52.34,70.25-101.34C896.72,134.53,714.07,0,500,0,223.86,0,0,223.86,0,500s223.86,500,500,500c214.07,0,396.72-134.53,468-323.66,18.47-49-17.89-101.34-70.25-101.34h0a74.75,74.75,0,0,0-70.06,48.2C777.85,755.72,649.94,850,500,850Z"/><path class="cls-2" d="M574.73,575H775.26c41.08,0,74.65-33.15,74.74-74.23v-1.54c-.09-41.08-33.66-74.23-74.74-74.23H574.73A74.73,74.73,0,0,0,500,499.73v.54A74.73,74.73,0,0,0,574.73,575Z"/><path class="cls-3" d="M1496.36,645.75q0,11.24-6.56,18.73t-19.66,14.36q-15.6,7.49-43.07,13.11a277,277,0,0,1-55.55,5.61q-43.71,0-79.9-11.86t-62.43-36.2Q1203,625.16,1188.62,588t-14.36-87.7q0-49.93,15-87.39t40.89-62.11A167.61,167.61,0,0,1,1290.37,314a217,217,0,0,1,73-12.17,250.65,250.65,0,0,1,48.38,4.37q22.14,4.38,37.76,11.55t24.35,15.92q8.73,8.75,8.74,17.47a23.23,23.23,0,0,1-5,15,32.05,32.05,0,0,1-11.86,9.36,237.62,237.62,0,0,0-40-20.91q-23.1-9.68-59.3-9.68a151.65,151.65,0,0,0-55.55,10,123.16,123.16,0,0,0-44.32,29.34q-18.74,19.35-29.34,48.69t-10.61,67.41q0,40.59,10.92,69.6t30.59,47.75a124.11,124.11,0,0,0,46.19,27.78q26.52,9.06,57.74,9a230.93,230.93,0,0,0,42.45-3.74q20-3.75,31.21-9.37V526.53h-94.26a46.72,46.72,0,0,1-3.74-8.43,34.38,34.38,0,0,1-1.88-11.55q0-10.6,5-16.54t14.35-5.93h104.25a27.14,27.14,0,0,1,19,7.18q7.8,7.19,7.8,19Z"/><path class="cls-3" d="M1856.53,545.26q0,35-10,63t-28.4,48.07A122.07,122.07,0,0,1,1773.5,687q-26.2,10.6-58.67,10.61T1656.15,687a124.91,124.91,0,0,1-44.94-30.58q-18.74-20-28.71-48.07t-10-63q0-35,10.3-63.05t29-48.06a125.19,125.19,0,0,1,45-30.59q26.21-10.6,58-10.61t58.05,10.61a122.18,122.18,0,0,1,44.63,30.59q18.4,20,28.72,48.06T1856.53,545.26Zm-141.7-111.11q-42.46,0-66.79,29.33t-24.35,81.78q0,53.06,24,82.08t67.1,29q43.07,0,66.79-29.34t23.72-81.77q0-52.44-24-81.78T1714.83,434.15Z"/><path class="cls-3" d="M2137.42,612.67q0,40-29.34,62.42t-84.89,22.47a220.16,220.16,0,0,1-43.7-4q-20-4.07-34-10.62t-21.84-15q-7.82-8.42-7.81-17.16a27.77,27.77,0,0,1,4.06-14.36,35.16,35.16,0,0,1,12.17-11.86,195.91,195.91,0,0,0,39.33,22.16q22.47,9.69,51.18,9.68,64.92,0,64.92-43.7,0-35.58-43.07-46.19l-51.81-13.73q-38.08-10-55.55-29t-17.48-49a77.06,77.06,0,0,1,6.55-31.21,69.86,69.86,0,0,1,20.29-26.22q13.72-11.24,34-17.79t47.75-6.55q43.68,0,70.54,12.79t26.84,29.65a25.75,25.75,0,0,1-4.06,14.36,25.11,25.11,0,0,1-10.92,9.36q-11.23-7.49-31.84-16.23t-48.69-8.73q-28.08,0-44.63,10.61t-16.54,30a34.25,34.25,0,0,0,9.36,24.34q9.38,10,31.21,15l43.08,10.62q42.43,10.62,63.67,31.52T2137.42,612.67Z"/><path class="cls-3" d="M2416.44,612.67q0,40-29.34,62.42t-84.89,22.47a220.09,220.09,0,0,1-43.7-4q-20-4.07-34-10.62t-21.85-15q-7.82-8.42-7.8-17.16a27.77,27.77,0,0,1,4.06-14.36,35.16,35.16,0,0,1,12.17-11.86,195.91,195.91,0,0,0,39.33,22.16q22.47,9.69,51.18,9.68,64.92,0,64.92-43.7,0-35.58-43.07-46.19l-51.81-13.73q-38.09-10-55.56-29t-17.47-49a77.06,77.06,0,0,1,6.55-31.21,69.86,69.86,0,0,1,20.29-26.22q13.72-11.24,34-17.79T2307.2,393q43.68,0,70.54,12.79t26.84,29.65a25.75,25.75,0,0,1-4.06,14.36,25.11,25.11,0,0,1-10.92,9.36q-11.23-7.49-31.84-16.23t-48.69-8.73q-28.08,0-44.63,10.61t-16.54,30a34.25,34.25,0,0,0,9.36,24.34q9.36,10,31.21,15l43.07,10.62q42.45,10.62,63.67,31.52T2416.44,612.67Z"/><path class="cls-3" d="M2601.19,393q54.32,0,86.14,24.34t31.84,76.78V642q0,13.74-5.31,20.91T2698,676.34q-15,8.74-39.64,15.29t-56.49,6.56q-58.68,0-90.83-23.1t-32.15-66.79q0-41.19,26.85-62.11t75.53-25.9l88.64-8.74V494.07q0-31.2-18.73-45.57t-50.56-14.35a158.71,158.71,0,0,0-49.32,7.49,272.55,272.55,0,0,0-41.19,16.85,59,59,0,0,1-9.06-10A20.76,20.76,0,0,1,2497,436q0-8.73,4.37-14.36t13.73-10.61a154,154,0,0,1,38.7-13.42A226.39,226.39,0,0,1,2601.19,393Zm.63,264q26.2,0,43.38-5.31t24.66-10.3V550.87L2592.45,559q-32.46,3.13-48.06,14.67t-15.61,34q0,23.73,18.1,36.51T2601.82,657Z"/><path class="cls-3" d="M3158.61,448.5q-17.47-14.36-46.81-14.35-40.59,0-72.41,28.71a93.26,93.26,0,0,1,3.74,26.84V688.2a73.58,73.58,0,0,1-9.67,2.81,58.35,58.35,0,0,1-13.42,1.56q-26.85,0-26.85-22.47V493.45q0-30.58-17.47-44.95t-47.44-14.35a113.24,113.24,0,0,0-37.77,6.24,141.85,141.85,0,0,0-30.27,14.35V688.2a77.28,77.28,0,0,1-9.37,2.81,57,57,0,0,1-13.73,1.56q-26.85,0-26.84-22.47V457.24q0-12.48,5.3-20.91T2834,419.16q16.86-10.61,42.76-18.41a179.84,179.84,0,0,1,52.12-7.8q30.57,0,54.31,9.05t36.2,24.65q16.23-14.34,40.58-24t55.55-9.67q50.57,0,80.52,24t30,74V688.2a74.31,74.31,0,0,1-9.68,2.81,58.29,58.29,0,0,1-13.42,1.56q-26.85,0-26.84-22.47V493.45Q3176.09,462.87,3158.61,448.5Z"/><path class="cls-3" d="M3355.24,574.59q16.85,81.79,107.36,81.78,26.22,0,47.44-8.74t33.71-18.73q15,8.75,15,23.72,0,8.75-7.8,16.85t-21.22,14.36a144.83,144.83,0,0,1-31.22,10,186,186,0,0,1-38.39,3.74q-72.41,0-114.54-39.32t-42.13-114.86q0-35.58,10.3-63.36t28.71-47.12a123.48,123.48,0,0,1,44-29.65Q3412,392.95,3442,393q28.1,0,51.81,9.36a118.82,118.82,0,0,1,40.89,26.53,123.61,123.61,0,0,1,26.84,40.57q9.67,23.41,9.67,51.5,0,13.74-6.24,19.66t-17.47,7.18Zm86.14-141.07q-38.09,0-63.05,26.53t-26.21,75.84l171.65-23.72q-3.12-34.32-24-56.49T3441.38,433.52Z"/><path class="cls-3" d="M3693.56,688.2a77.59,77.59,0,0,1-9.36,2.81,57.19,57.19,0,0,1-13.74,1.56q-26.84,0-26.84-22.47V458.49q0-14.36,5.31-22.78t17.79-16.55q16.22-10.61,44-18.41t62.73-7.8q49.93,0,49.94,25a34.36,34.36,0,0,1-1.88,11.54,28.84,28.84,0,0,1-5,9.05q-6.24-1.23-16.23-2.49a161.38,161.38,0,0,0-20-1.25q-28.73,0-50.57,5.93t-36.2,14Z"/></svg>